<svg width="669" height="300" viewBox="0 0 669 300" fill="none" xmlns="http://www.w3.org/2000/svg">
<path d="M132.875 211V238H41.375V211H132.875ZM51.75 56V238H17.375V56H51.75Z" fill="white"/>
<path d="M213 171C219.075 171 224 166.075 224 160C224 153.925 219.075 149 213 149C206.925 149 202 153.925 202 160C202 166.075 206.925 171 213 171Z" fill="white"/>
<path d="M213 77C167.161 77 130 114.161 130 160C130 205.839 167.161 243 213 243C258.839 243 296 205.839 296 160C296 114.161 258.839 77 213 77ZM181.353 97.6428C190.854 92.8128 201.609 90.0889 213 90.0889C213.669 90.0889 214.332 90.0979 214.995 90.1158C216.096 90.1458 216.852 92.8818 216.687 96.1908L215.841 113.222C215.676 116.53 214.974 119.179 214.272 119.158C213.849 119.146 213.426 119.14 213 119.14C207.009 119.14 201.318 120.43 196.191 122.746C193.17 124.111 189.555 123.298 187.869 120.445L179.181 105.755C177.495 102.902 178.398 99.1458 181.353 97.6428ZM177.957 128.884L165.124 117.658C162.628 115.478 162.37 111.677 164.767 109.391C164.824 109.337 164.878 109.286 164.938 109.232C167.344 106.952 171.115 107.417 173.148 110.03L183.63 123.481C185.667 126.094 186.141 129.148 184.803 130.423C183.462 131.704 180.453 131.065 177.957 128.884ZM183.63 160C183.63 143.779 196.779 130.63 213 130.63C229.221 130.63 242.369 143.779 242.369 160C242.369 176.221 229.221 189.369 213 189.369C196.779 189.369 183.63 176.221 183.63 160ZM244.509 222.426C235.041 227.214 224.334 229.911 213 229.911C212.256 229.911 211.515 229.899 210.777 229.878C209.55 229.839 208.701 227.092 208.881 223.782L209.811 206.754C209.994 203.446 210.777 200.812 211.569 200.838C212.043 200.853 212.52 200.863 213 200.863C218.502 200.863 223.746 199.777 228.537 197.809C231.603 196.549 235.362 197.377 237.168 200.155L246.471 214.464C248.276 217.239 247.467 220.929 244.509 222.426ZM260.855 210.967C258.558 213.127 254.84 212.62 252.747 210.051L241.976 196.83C239.883 194.263 239.349 191.286 240.672 190.066C241.998 188.845 245.001 189.528 247.493 191.713L260.333 202.944C262.83 205.125 263.156 208.806 260.855 210.967Z" fill="white"/>
<path d="M357.25 238H327V94C327 83.0833 329.167 73.875 333.5 66.375C337.917 58.875 344.208 53.1667 352.375 49.25C360.625 45.3333 370.417 43.375 381.75 43.375C388.417 43.375 394.833 44.0833 401 45.5C407.25 46.9167 413.708 48.7083 420.375 50.875L415.75 75.375C411.5 73.9583 406.792 72.625 401.625 71.375C396.458 70.0417 390.5 69.375 383.75 69.375C374.667 69.375 367.958 71.4583 363.625 75.625C359.375 79.7083 357.25 85.8333 357.25 94V238ZM384.375 102.75V124.75H306.25V102.75H384.375ZM434.625 102.75V238H404.5V102.75H434.625ZM509 238H478.875V89.75C478.875 79.6667 480.75 71.2083 484.5 64.375C488.333 57.4583 493.792 52.25 500.875 48.75C507.958 45.1667 516.333 43.375 526 43.375C529 43.375 531.958 43.5833 534.875 44C537.792 44.3333 540.625 44.875 543.375 45.625L542.625 68.875C540.958 68.4583 539.125 68.1667 537.125 68C535.208 67.8333 533.125 67.75 530.875 67.75C526.292 67.75 522.333 68.625 519 70.375C515.75 72.0417 513.25 74.5 511.5 77.75C509.833 81 509 85 509 89.75V238ZM536.875 102.75V124.75H458.125V102.75H536.875ZM598 223.25L634.75 102.75H667L612.75 258.625C611.5 261.958 609.875 265.583 607.875 269.5C605.875 273.417 603.25 277.125 600 280.625C596.833 284.208 592.875 287.083 588.125 289.25C583.375 291.5 577.625 292.625 570.875 292.625C568.208 292.625 565.625 292.375 563.125 291.875C560.708 291.458 558.417 291 556.25 290.5L556.125 267.5C556.958 267.583 557.958 267.667 559.125 267.75C560.375 267.833 561.375 267.875 562.125 267.875C567.125 267.875 571.292 267.25 574.625 266C577.958 264.833 580.667 262.917 582.75 260.25C584.917 257.583 586.75 254 588.25 249.5L598 223.25ZM577.25 102.75L609.375 204L614.75 235.75L593.875 241.125L544.75 102.75H577.25Z" fill="white"/>
</svg>
