<svg xmlns="http://www.w3.org/2000/svg" xmlns:xlink="http://www.w3.org/1999/xlink" width="3000" zoomAndPan="magnify" viewBox="0 0 2250 2250.000011" height="3000" preserveAspectRatio="xMidYMid meet" version="1.0"><defs><g/><clipPath id="id1"><path d="M 464.027344 823.175781 L 1065.082031 823.175781 L 1065.082031 1424.230469 L 464.027344 1424.230469 Z M 464.027344 823.175781 " clip-rule="nonzero"/></clipPath></defs><path fill="rgb(97.24884%, 95.689392%, 94.119263%)" d="M 819.226562 1123.894531 C 819.226562 1125.679688 819.140625 1127.460938 818.964844 1129.234375 C 818.789062 1131.011719 818.527344 1132.773438 818.179688 1134.523438 C 817.832031 1136.273438 817.398438 1138.003906 816.878906 1139.710938 C 816.363281 1141.417969 815.761719 1143.097656 815.078125 1144.746094 C 814.398438 1146.394531 813.632812 1148.003906 812.792969 1149.578125 C 811.953125 1151.152344 811.035156 1152.679688 810.046875 1154.164062 C 809.054688 1155.648438 807.992188 1157.078125 806.859375 1158.457031 C 805.726562 1159.835938 804.53125 1161.15625 803.269531 1162.417969 C 802.007812 1163.679688 800.6875 1164.878906 799.308594 1166.007812 C 797.929688 1167.140625 796.496094 1168.203125 795.015625 1169.195312 C 793.53125 1170.183594 792.003906 1171.101562 790.429688 1171.941406 C 788.855469 1172.785156 787.242188 1173.546875 785.59375 1174.226562 C 783.945312 1174.910156 782.269531 1175.511719 780.5625 1176.03125 C 778.855469 1176.546875 777.125 1176.980469 775.375 1177.328125 C 773.625 1177.675781 771.863281 1177.9375 770.085938 1178.113281 C 768.3125 1178.289062 766.53125 1178.375 764.746094 1178.375 C 762.964844 1178.375 761.183594 1178.289062 759.40625 1178.113281 C 757.632812 1177.9375 755.867188 1177.675781 754.117188 1177.328125 C 752.367188 1176.980469 750.640625 1176.546875 748.933594 1176.03125 C 747.226562 1175.511719 745.546875 1174.910156 743.898438 1174.226562 C 742.25 1173.546875 740.640625 1172.785156 739.066406 1171.941406 C 737.492188 1171.101562 735.964844 1170.183594 734.480469 1169.195312 C 732.996094 1168.203125 731.566406 1167.140625 730.1875 1166.007812 C 728.804688 1164.878906 727.484375 1163.679688 726.222656 1162.417969 C 724.960938 1161.15625 723.765625 1159.835938 722.632812 1158.457031 C 721.503906 1157.078125 720.441406 1155.648438 719.449219 1154.164062 C 718.457031 1152.679688 717.542969 1151.152344 716.699219 1149.578125 C 715.859375 1148.003906 715.097656 1146.394531 714.414062 1144.746094 C 713.730469 1143.097656 713.132812 1141.417969 712.613281 1139.710938 C 712.097656 1138.003906 711.664062 1136.273438 711.316406 1134.523438 C 710.964844 1132.773438 710.707031 1131.011719 710.53125 1129.234375 C 710.355469 1127.460938 710.269531 1125.679688 710.269531 1123.894531 C 710.269531 1122.113281 710.355469 1120.332031 710.53125 1118.554688 C 710.707031 1116.78125 710.964844 1115.019531 711.316406 1113.269531 C 711.664062 1111.519531 712.097656 1109.789062 712.613281 1108.082031 C 713.132812 1106.375 713.730469 1104.695312 714.414062 1103.046875 C 715.097656 1101.398438 715.859375 1099.789062 716.699219 1098.214844 C 717.542969 1096.640625 718.457031 1095.113281 719.449219 1093.628906 C 720.441406 1092.144531 721.503906 1090.714844 722.632812 1089.335938 C 723.765625 1087.957031 724.960938 1086.636719 726.222656 1085.375 C 727.484375 1084.113281 728.804688 1082.914062 730.1875 1081.78125 C 731.566406 1080.652344 732.996094 1079.589844 734.480469 1078.597656 C 735.964844 1077.605469 737.492188 1076.691406 739.066406 1075.851562 C 740.640625 1075.007812 742.25 1074.246094 743.898438 1073.5625 C 745.546875 1072.882812 747.226562 1072.28125 748.933594 1071.761719 C 750.640625 1071.246094 752.367188 1070.8125 754.117188 1070.464844 C 755.867188 1070.117188 757.632812 1069.855469 759.40625 1069.679688 C 761.183594 1069.503906 762.964844 1069.417969 764.746094 1069.417969 C 766.53125 1069.417969 768.3125 1069.503906 770.085938 1069.679688 C 771.863281 1069.855469 773.625 1070.117188 775.375 1070.464844 C 777.125 1070.8125 778.855469 1071.246094 780.5625 1071.761719 C 782.269531 1072.28125 783.945312 1072.882812 785.59375 1073.5625 C 787.242188 1074.246094 788.855469 1075.007812 790.429688 1075.851562 C 792.003906 1076.691406 793.53125 1077.605469 795.015625 1078.597656 C 796.496094 1079.589844 797.929688 1080.652344 799.308594 1081.78125 C 800.6875 1082.914062 802.007812 1084.113281 803.269531 1085.375 C 804.53125 1086.636719 805.726562 1087.957031 806.859375 1089.335938 C 807.992188 1090.714844 809.054688 1092.144531 810.042969 1093.628906 C 811.035156 1095.113281 811.953125 1096.640625 812.792969 1098.214844 C 813.632812 1099.789062 814.398438 1101.398438 815.078125 1103.046875 C 815.761719 1104.695312 816.363281 1106.375 816.878906 1108.082031 C 817.398438 1109.789062 817.832031 1111.519531 818.179688 1113.269531 C 818.527344 1115.019531 818.789062 1116.78125 818.964844 1118.554688 C 819.140625 1120.332031 819.226562 1122.113281 819.226562 1123.894531 Z M 819.226562 1123.894531 " fill-opacity="1" fill-rule="nonzero"/><g clip-path="url(#id1)"><path fill="rgb(97.24884%, 95.689392%, 94.119263%)" d="M 764.746094 823.324219 C 598.746094 823.324219 464.171875 957.894531 464.171875 1123.894531 C 464.171875 1289.894531 598.746094 1424.464844 764.746094 1424.464844 C 930.746094 1424.464844 1065.316406 1289.894531 1065.316406 1123.894531 C 1065.316406 957.894531 930.746094 823.324219 764.746094 823.324219 Z M 764.746094 999.527344 C 833.433594 999.527344 889.113281 1055.207031 889.113281 1123.894531 C 889.113281 1192.582031 833.433594 1248.261719 764.746094 1248.261719 C 696.058594 1248.261719 640.378906 1192.582031 640.378906 1123.894531 C 640.378906 1055.207031 696.058594 999.527344 764.746094 999.527344 Z M 894.976562 967.246094 C 896.921875 965.023438 900.304688 964.796875 902.527344 966.742188 C 924.78125 986.273438 942.855469 1010.441406 955.226562 1037.734375 C 967.136719 1064.015625 973.769531 1093.1875 973.769531 1123.894531 C 973.769531 1154.601562 967.136719 1183.773438 955.226562 1210.054688 C 942.855469 1237.347656 924.78125 1261.515625 902.527344 1281.046875 C 900.304688 1282.992188 896.921875 1282.765625 894.976562 1280.542969 C 893.035156 1278.320312 893.257812 1274.941406 895.480469 1272.996094 C 916.578125 1254.484375 933.714844 1231.558594 945.457031 1205.652344 C 956.746094 1180.738281 963.035156 1153.058594 963.035156 1123.894531 C 963.035156 1094.730469 956.746094 1067.050781 945.457031 1042.136719 C 933.714844 1016.230469 916.578125 993.304688 895.480469 974.792969 C 893.257812 972.851562 893.035156 969.46875 894.976562 967.246094 Z M 634.007812 1272.996094 C 636.234375 1274.941406 636.457031 1278.320312 634.511719 1280.542969 C 632.566406 1282.765625 629.1875 1282.992188 626.964844 1281.046875 C 604.707031 1261.515625 586.632812 1237.347656 574.265625 1210.054688 C 562.355469 1183.773438 555.722656 1154.601562 555.722656 1123.894531 C 555.722656 1093.1875 562.355469 1064.015625 574.265625 1037.734375 C 586.632812 1010.441406 604.707031 986.273438 626.964844 966.742188 C 629.1875 964.796875 632.566406 965.023438 634.511719 967.246094 C 636.457031 969.46875 636.234375 972.851562 634.007812 974.792969 C 612.914062 993.304688 595.777344 1016.230469 584.035156 1042.136719 C 572.746094 1067.050781 566.457031 1094.730469 566.457031 1123.894531 C 566.457031 1153.058594 572.746094 1180.738281 584.035156 1205.652344 C 595.777344 1231.558594 612.914062 1254.484375 634.007812 1272.996094 Z M 963.328125 966.511719 C 965.675781 964.730469 969.027344 965.191406 970.8125 967.539062 C 987.617188 989.65625 1000.949219 1014.546875 1009.984375 1041.398438 C 1018.710938 1067.339844 1023.441406 1095.082031 1023.441406 1123.894531 C 1023.441406 1152.707031 1018.710938 1180.449219 1009.984375 1206.390625 C 1000.949219 1233.242188 987.617188 1258.132812 970.8125 1280.25 C 969.027344 1282.597656 965.675781 1283.058594 963.328125 1281.277344 C 960.976562 1279.492188 960.515625 1276.140625 962.300781 1273.792969 C 978.394531 1252.609375 991.167969 1228.75 999.835938 1202.992188 C 1008.183594 1178.183594 1012.707031 1151.585938 1012.707031 1123.894531 C 1012.707031 1096.203125 1008.183594 1069.605469 999.835938 1044.796875 C 991.167969 1019.039062 978.394531 995.179688 962.300781 973.996094 C 960.515625 971.648438 960.976562 968.296875 963.328125 966.511719 Z M 567.191406 1273.792969 C 568.976562 1276.140625 568.515625 1279.492188 566.164062 1281.277344 C 563.8125 1283.058594 560.460938 1282.597656 558.679688 1280.25 C 541.871094 1258.132812 528.542969 1233.242188 519.507812 1206.390625 C 510.78125 1180.449219 506.050781 1152.707031 506.050781 1123.894531 C 506.050781 1095.082031 510.777344 1067.332031 519.503906 1041.390625 C 528.53125 1014.542969 541.855469 989.652344 558.660156 967.539062 C 560.441406 965.191406 563.792969 964.730469 566.144531 966.511719 C 568.496094 968.296875 568.953125 971.648438 567.171875 973.996094 C 551.078125 995.175781 538.3125 1019.03125 529.652344 1044.785156 C 521.304688 1069.597656 516.785156 1096.199219 516.785156 1123.894531 C 516.785156 1151.585938 521.308594 1178.183594 529.65625 1202.992188 C 538.320312 1228.75 551.09375 1252.609375 567.191406 1273.792969 Z M 567.191406 1273.792969 " fill-opacity="1" fill-rule="evenodd"/></g><g fill="rgb(100%, 100%, 100%)" fill-opacity="1"><g transform="translate(29.245315, 1385.67275)"><g><path d="M 160.25 -89.8125 L 397.625 -89.8125 L 397.625 0 L 48.453125 0 L 48.453125 -542.578125 L 160.25 -542.578125 Z M 160.25 -89.8125 "/></g></g></g><g fill="rgb(100%, 100%, 100%)" fill-opacity="1"><g transform="translate(1088.142831, 1385.67275)"><g><path d="M 70.8125 0 L 70.8125 -324.21875 L 10.8125 -324.21875 L 10.8125 -403.21875 L 70.8125 -403.21875 L 70.8125 -437.5 C 70.8125 -482.71875 83.789062 -517.804688 109.75 -542.765625 C 135.707031 -567.734375 172.039062 -580.21875 218.75 -580.21875 C 233.65625 -580.21875 251.914062 -577.734375 273.53125 -572.765625 L 272.40625 -489.296875 C 263.46875 -491.535156 252.539062 -492.65625 239.625 -492.65625 C 199.125 -492.65625 178.875 -473.648438 178.875 -435.640625 L 178.875 -403.21875 L 259 -403.21875 L 259 -324.21875 L 178.875 -324.21875 L 178.875 0 Z M 70.8125 0 "/></g></g></g><g fill="rgb(100%, 100%, 100%)" fill-opacity="1"><g transform="translate(1361.661439, 1385.67275)"><g><path d="M 155.03125 0 L 46.953125 0 L 46.953125 -403.21875 L 155.03125 -403.21875 Z M 40.625 -507.5625 C 40.625 -523.695312 46.023438 -536.976562 56.828125 -547.40625 C 67.640625 -557.84375 82.359375 -563.0625 100.984375 -563.0625 C 119.367188 -563.0625 134.023438 -557.84375 144.953125 -547.40625 C 155.890625 -536.976562 161.359375 -523.695312 161.359375 -507.5625 C 161.359375 -491.164062 155.828125 -477.75 144.765625 -467.3125 C 133.710938 -456.875 119.117188 -451.65625 100.984375 -451.65625 C 82.847656 -451.65625 68.253906 -456.875 57.203125 -467.3125 C 46.148438 -477.75 40.625 -491.164062 40.625 -507.5625 Z M 40.625 -507.5625 "/></g></g></g><g fill="rgb(100%, 100%, 100%)" fill-opacity="1"><g transform="translate(1564.005586, 1385.67275)"><g><path d="M 70.8125 0 L 70.8125 -324.21875 L 10.8125 -324.21875 L 10.8125 -403.21875 L 70.8125 -403.21875 L 70.8125 -437.5 C 70.8125 -482.71875 83.789062 -517.804688 109.75 -542.765625 C 135.707031 -567.734375 172.039062 -580.21875 218.75 -580.21875 C 233.65625 -580.21875 251.914062 -577.734375 273.53125 -572.765625 L 272.40625 -489.296875 C 263.46875 -491.535156 252.539062 -492.65625 239.625 -492.65625 C 199.125 -492.65625 178.875 -473.648438 178.875 -435.640625 L 178.875 -403.21875 L 259 -403.21875 L 259 -324.21875 L 178.875 -324.21875 L 178.875 0 Z M 70.8125 0 "/></g></g></g><g fill="rgb(100%, 100%, 100%)" fill-opacity="1"><g transform="translate(1837.524193, 1385.67275)"><g><path d="M 191.921875 -152.421875 L 266.453125 -403.21875 L 381.96875 -403.21875 L 219.875 62.609375 L 210.921875 83.84375 C 186.828125 136.507812 147.078125 162.84375 91.671875 162.84375 C 76.023438 162.84375 60.125 160.484375 43.96875 155.765625 L 43.96875 74.15625 L 60.375 74.53125 C 80.738281 74.53125 95.953125 71.425781 106.015625 65.21875 C 116.078125 59.007812 123.96875 48.695312 129.6875 34.28125 L 142.359375 1.125 L 1.125 -403.21875 L 117.015625 -403.21875 Z M 191.921875 -152.421875 "/></g></g></g></svg>